<?xml version="1.0" encoding="iso-8859-1"?>
<!-- Generator: Adobe Illustrator 21.0.0, SVG Export Plug-In . SVG Version: 6.00 Build 0)  -->
<svg version="1.1" xmlns="http://www.w3.org/2000/svg" xmlns:xlink="http://www.w3.org/1999/xlink" x="0px" y="0px" width="2800px"
	 height="2800px" viewBox="0 0 2800 2800" enable-background="new 0 0 2800 2800" xml:space="preserve">
<g id="BACKGROUND">
	<g>
		<linearGradient id="SVGID_1_" gradientUnits="userSpaceOnUse" x1="-9.428368e-08" y1="9.428277e-08" x2="2800" y2="2800">
			<stop  offset="0" style="stop-color:#FF00AA"/>
			<stop  offset="1" style="stop-color:#2A00E6"/>
		</linearGradient>
		<rect fill="url(#SVGID_1_)" width="2800" height="2800"/>
	</g>
</g>
<g id="OBJECTS">
	<g opacity="0.1">
		<path d="M1667,2278.4H1193c-24.4,0-44.1,19.8-44.1,44.1l0,0c0,24.4,19.8,44.1,44.1,44.1H1667c24.4,0,44.1-19.8,44.1-44.1l0,0
			C1711.2,2298.1,1691.4,2278.4,1667,2278.4z"/>
		<path d="M1606.5,2410.8h-353.1c-24.4,0-44.1,19.8-44.1,44.1v0c0,24.4,19.8,44.1,44.1,44.1h353.1c24.4,0,44.1-19.8,44.1-44.1v0
			C1650.7,2430.5,1630.9,2410.8,1606.5,2410.8z"/>
		<path d="M1269.8,2543.1c0,48.7,39.5,88.3,88.3,88.3h143.8c48.7,0,88.3-39.5,88.3-88.3l0,0H1269.8L1269.8,2543.1z"/>
		<path d="M2015.8,1144.6c-8.3,0-16.4,1-24.2,3l-54.7-191.5c8.8-3.7,15-12.5,15-22.6c0-13.6-11-24.6-24.6-24.6
			c-6,0-11.4,2.1-15.7,5.6L1731,743.7c3-4.1,4.8-9.1,4.8-14.6c0-13.6-11-24.6-24.6-24.6c-10.4,0-19.3,6.5-22.9,15.6l-119.1-30.4
			c2.4-10.4,3.7-21.3,3.7-32.4c0-78.9-64-142.9-142.9-142.9s-142.9,64-142.9,142.9c0,11.2,1.3,22,3.7,32.4l-119.1,30.4
			c-3.6-9.2-12.5-15.6-22.9-15.6c-13.6,0-24.6,11-24.6,24.6c0,5.5,1.8,10.5,4.8,14.6L948.3,914.5c-4.3-3.5-9.7-5.6-15.7-5.6
			c-13.6,0-24.6,11-24.6,24.6c0,10.2,6.2,18.9,15,22.6l-54.7,191.5c-7.7-2-15.8-3-24.2-3c-54.4,0-98.6,44.1-98.6,98.6
			c0,54.4,44.1,98.6,98.6,98.6c6.5,0,12.8-0.6,18.9-1.8l32.8,144.5c-9.5,3.4-16.3,12.5-16.3,23.1c0,13.6,11,24.6,24.6,24.6
			c3.7,0,7.2-0.8,10.3-2.3l101,163.2c-5.6,4.5-9.2,11.4-9.2,19.2c0,13.6,11,24.6,24.6,24.6c1.9,0,3.7-0.2,5.4-0.6l75,208.7
			c-35.9,14.7-61.2,50-61.2,91.2c0,53.4,42.5,96.9,95.6,98.5v65c-12.2,1.5-21.6,11.8-21.6,24.4c0,13.6,11,24.6,24.6,24.6
			c12.6,0,22.9-9.4,24.4-21.6h513.5c1.5,12.2,11.8,21.6,24.4,21.6c0.4,0,0.8,0,1.3,0c0.8,0,1.7-0.1,2.5-0.3c0.4-0.1,0.8-0.1,1.2-0.2
			c3.6-0.7,6.9-2.3,9.8-4.4c0.3-0.2,0.6-0.5,0.9-0.7c3-2.5,5.5-5.7,7-9.4c1.2-2.9,1.9-6.2,1.9-9.6s-0.7-6.6-1.9-9.6
			c-1.6-3.7-4-6.9-7-9.4c-0.3-0.3-0.6-0.5-0.9-0.7c-2.8-2.1-6.2-3.6-9.8-4.4c-0.4-0.1-0.8-0.2-1.2-0.2c-0.2,0-0.5-0.1-0.7-0.1v-65
			c53.1-1.6,95.6-45.1,95.6-98.5c0-41.2-25.3-76.5-61.2-91.2l75-208.7c1.7,0.4,3.6,0.6,5.4,0.6c13.6,0,24.6-11,24.6-24.6
			c0-7.8-3.6-14.7-9.2-19.2l101-163.2c3.1,1.4,6.6,2.3,10.3,2.3c13.6,0,24.6-11,24.6-24.6c0-10.7-6.8-19.7-16.3-23.1l32.8-144.5
			c6.1,1.2,12.4,1.8,18.9,1.8c54.4,0,98.6-44.1,98.6-98.6C2114.4,1188.7,2070.3,1144.6,2015.8,1144.6z M1985.9,1149.2
			c-37.9,12.1-65.8,46.4-68.4,87.7l-83.2-2.7c-0.7-8.4-5.8-15.6-12.9-19.5l99.9-257.4c1.9,0.5,4,0.7,6,0.7c1.3,0,2.6-0.1,3.8-0.3
			L1985.9,1149.2z M1931.2,1507.5c0,0.1,0,0.1,0,0.2l-122.7,15.9c-5.7-35.8-30.7-65.2-64-77.1l60.5-186c1.5,0.3,3.1,0.5,4.7,0.5
			c3.2,0,6.2-0.6,8.9-1.7l122.9,228.2C1935.3,1491.9,1931.2,1499.3,1931.2,1507.5z M1804.5,1710.9l-232.1,15.4
			c-2.2-25-10.7-48.1-24.1-67.7l84.3-59.8c18,23.8,46.5,39.1,78.6,39.1c19.5,0,37.7-5.7,53-15.5l48.6,71.4
			C1808,1698,1804.8,1704.1,1804.5,1710.9z M1055.5,1710.9c-0.4-6.8-3.5-12.9-8.3-17.1l48.6-71.4c15.3,9.8,33.5,15.5,53,15.5
			c32.1,0,60.6-15.4,78.6-39.1l84.3,59.8c-13.3,19.6-21.9,42.8-24.1,67.7L1055.5,1710.9z M918.8,1487.7l127.5-228.6
			c2.9,1.2,6,1.8,9.3,1.8c1.5,0,2.9-0.1,4.3-0.4L1117,1446c-34,11.6-59.7,41.3-65.5,77.6l-122.7-15.9c0-0.1,0-0.1,0-0.2
			C928.8,1499.4,924.9,1492.2,918.8,1487.7z M1148.8,753.7c7.1,0,13.5-3,18-7.8l241.7,175.6c-1.5,2.7-2.5,5.7-2.9,8.9h-158.2
			c-1.6-53.1-45.1-95.6-98.5-95.6s-96.9,42.5-98.5,95.6h-93.3c-0.5-4.3-2.2-8.3-4.6-11.6L1133.2,748
			C1137.4,751.6,1142.9,753.7,1148.8,753.7z M1711.2,753.7c6,0,11.4-2.1,15.7-5.6l180.7,170.8c-2.5,3.3-4.1,7.3-4.6,11.6h-93.3
			c-1.6-53.1-45.1-95.6-98.5-95.6s-96.9,42.5-98.5,95.6h-158.2c-0.4-3.2-1.4-6.2-2.9-8.9l241.7-175.6
			C1697.7,750.7,1704.1,753.7,1711.2,753.7z M1430,1595.8c-47,0-88.7,22.7-114.8,57.8l-84.3-59.8c9.9-14.8,15.9-32.5,16.4-51.6
			h365.3c0.6,19,6.5,36.7,16.4,51.6l-84.3,59.8C1518.7,1618.6,1477,1595.8,1430,1595.8z M1405.6,936.4c1.5,12.2,11.8,21.6,24.4,21.6
			s22.9-9.4,24.4-21.6h158.2c0.8,26.7,12.2,50.7,30.1,67.9l-73,80.5c-37.2-32.9-86.1-52.8-139.7-52.8c-53.6,0-102.4,20-139.7,52.8
			l-73-80.5c17.9-17.3,29.3-41.3,30.1-67.9H1405.6z M1785.3,1233.8l-144.3,2.6c-1.8-58.2-27.2-110.4-66.9-147.5l73-80.5
			c17.2,14.7,39.6,23.6,64,23.6c9.6,0,18.9-1.4,27.6-3.9l60.5,186C1791.7,1217.6,1786.2,1225,1785.3,1233.8z M1612.6,1536.3h-365.3
			c-0.8-25.9-11.5-49.2-28.5-66.4l68-71.6c37.6,34.7,87.9,56,143.2,56s105.5-21.2,143.2-56l68,71.6
			C1624.1,1487.1,1613.4,1510.4,1612.6,1536.3z M1148.8,1032c24.4,0,46.8-8.9,64-23.6l73,80.5c-39.7,37.1-65.1,89.3-66.9,147.5
			l-139-2.5c-0.9-8.9-6.6-16.4-14.4-19.9l57.1-185.4C1131,1030.8,1139.8,1032,1148.8,1032z M1079.9,1239.8l139,2.5
			c0,0.3,0,0.5,0,0.8c0,59.2,24.4,112.7,63.6,151l-68,71.6c-17.4-15.6-40.4-25.1-65.7-25.1c-9,0-17.8,1.2-26.1,3.5l-57.1-185.4
			C1073.2,1255.4,1078.7,1248.3,1079.9,1239.8z M1711.2,1440.7c-25.2,0-48.2,9.5-65.7,25.1l-68-71.6c39.2-38.3,63.6-91.8,63.6-151
			c0-0.3,0-0.5,0-0.8l144.3-2.6c1.2,8.4,6.6,15.4,13.9,18.8l-60.5,186C1730,1442.1,1720.8,1440.7,1711.2,1440.7z M1809.7,1211.8
			c-1.6,0-3.2,0.2-4.7,0.5l-60.5-186c37.1-13.3,63.9-48.4,65.2-89.8h93.3c1,8.1,5.9,15,12.8,18.7l-99.9,257.4
			C1813.8,1212,1811.8,1211.8,1809.7,1211.8z M957.1,936.4h93.3c1.3,42,28.8,77.4,66.7,90.3l-57.1,185.4c-1.4-0.2-2.8-0.4-4.3-0.4
			c-2.2,0-4.4,0.3-6.4,0.8L944.6,954.9C951.3,951.2,956.1,944.4,957.1,936.4z M1427,1881.5v130.2c-12.2,1.5-21.6,11.8-21.6,24.4
			c0,0.3,0,0.6,0,1h-158c0-0.3,0-0.6,0-1c0-26.4-10.4-50.4-27.3-68.1l114.6-122.9C1359.4,1867.2,1391.6,1880.8,1427,1881.5z
			 M1247.2,2043.1h159.2c0.7,2.4,1.8,4.7,3.2,6.8l-242,158.3c-3.9-4.6-9.5-7.8-15.8-8.5v-65
			C1202.6,2133.2,1243.7,2093.4,1247.2,2043.1z M1170.9,2213.3l242.7-158.8c4.4,3.9,10.1,6.3,16.4,6.3s12.1-2.4,16.4-6.3
			l242.7,158.8c-1.2,2.4-2,5.1-2.3,7.9h-513.5C1172.9,2218.3,1172.1,2215.7,1170.9,2213.3z M1692.4,2208.2l-242-158.3
			c1.4-2.1,2.5-4.3,3.2-6.8h159.2c3.5,50.2,44.6,90.1,95.3,91.6v65C1701.9,2200.5,1696.3,2203.6,1692.4,2208.2z M1612.6,2037.1h-158
			c0-0.3,0-0.6,0-1c0-12.6-9.4-22.9-21.6-24.4v-130.2c35.4-0.7,67.6-14.3,92.2-36.3l114.6,122.9c-16.9,17.7-27.3,41.7-27.3,68.1
			C1612.6,2036.5,1612.6,2036.8,1612.6,2037.1z M1292.3,695.6c16.7,60.3,72,104.6,137.7,104.6s121-44.3,137.7-104.6l119.1,30.4
			c-0.1,1-0.2,2.1-0.2,3.1c0,4.3,1.1,8.4,3.1,11.9L1448,916.6c-4.5-4.8-10.9-7.8-18-7.8s-13.5,3-18,7.8L1170.3,741
			c2-3.5,3.1-7.6,3.1-11.9c0-1.1-0.1-2.1-0.2-3.1L1292.3,695.6z M928.8,957.7c1.2,0.2,2.5,0.3,3.8,0.3c2.2,0,4.4-0.3,6.4-0.8
			l104.6,257.7c-6.9,3.9-11.8,11-12.5,19.3l-88.5,2.8c-2.5-41.3-30.5-75.7-68.4-87.8L928.8,957.7z M868.9,1338.6
			c42.5-11,73.8-49.5,73.8-95.4c0-0.1,0-0.1,0-0.2l88.5-2.8c1,6.6,4.6,12.3,9.8,16.1l-127.5,228.6c-2.9-1.2-6-1.8-9.3-1.8
			c-0.8,0-1.7,0-2.5,0.1L868.9,1338.6z M919.6,1526.7c4.1-3.3,7.1-7.8,8.4-13l122.7,15.9c-0.3,3.2-0.5,6.4-0.5,9.7
			c0,32.8,16,61.8,40.6,79.7l-48.6,71.4c-3.4-1.7-7.2-2.7-11.3-2.7c-3.7,0-7.2,0.8-10.3,2.3L919.6,1526.7z M1042.1,1734.2
			c6.7-3.4,11.6-9.7,13.1-17.3l232.1,15.4c-0.1,2.1-0.2,4.3-0.2,6.5c0,40.2,16.6,76.4,43.3,102.4l-114.5,122.8
			c-17.6-16.3-41.1-26.3-67-26.3c-11.1,0-21.8,1.8-31.8,5.2L1042.1,1734.2z M1742.9,1942.8c-10-3.4-20.7-5.2-31.8-5.2
			c-25.9,0-49.4,10-67,26.3l-114.5-122.8c26.7-26,43.3-62.2,43.3-102.4c0-2.2-0.1-4.3-0.2-6.5l232.1-15.4c1.4,7.6,6.4,14,13.1,17.3
			L1742.9,1942.8z M1839.3,1689.9c-3.1-1.4-6.6-2.3-10.3-2.3c-4.1,0-7.9,1-11.3,2.7l-48.6-71.4c24.6-17.9,40.6-47,40.6-79.7
			c0-3.3-0.2-6.5-0.5-9.7l122.7-15.9c1.3,5.2,4.3,9.8,8.4,13L1839.3,1689.9z M1958.2,1483.1c-0.8-0.1-1.6-0.1-2.5-0.1
			c-3.2,0-6.2,0.6-8.9,1.7l-122.9-228.2c5.3-3.8,9-9.6,10.1-16.3l83.2,2.7c0,0.1,0,0.2,0,0.2c0,45.9,31.4,84.5,73.8,95.4
			L1958.2,1483.1z"/>
		<path d="M1430,410.9c7.7,0,14-6.3,14-14V228.6c0-7.7-6.3-14-14-14c-7.7,0-14,6.3-14,14v168.3C1416,404.6,1422.3,410.9,1430,410.9z
			"/>
		<path d="M1845.9,522.3c2.2,1.3,4.6,1.9,7,1.9c4.8,0,9.5-2.5,12.1-7l84.1-145.7c3.9-6.7,1.6-15.3-5.1-19.1
			c-6.7-3.9-15.3-1.6-19.1,5.1l-84.1,145.7C1836.9,509.9,1839.2,518.4,1845.9,522.3z"/>
		<path d="M2162.5,833.8c2.4,0,4.8-0.6,7-1.9l145.7-84.1c6.7-3.9,9-12.4,5.1-19.1c-3.9-6.7-12.4-9-19.1-5.1l-145.7,84.1
			c-6.7,3.9-9,12.4-5.1,19.1C2153,831.3,2157.7,833.8,2162.5,833.8z"/>
		<path d="M690.5,1653.4l-145.7,84.1c-6.7,3.9-9,12.4-5.1,19.1c2.6,4.5,7.3,7,12.1,7c2.4,0,4.8-0.6,7-1.9l145.7-84.1
			c6.7-3.9,9-12.4,5.1-19.1C705.8,1651.9,697.2,1649.6,690.5,1653.4z"/>
		<path d="M2444.1,1228.7h-168.3c-7.7,0-14,6.3-14,14s6.3,14,14,14h168.3c7.7,0,14-6.3,14-14S2451.8,1228.7,2444.1,1228.7z"/>
		<path d="M598.2,1242.7c0-7.7-6.3-14-14-14H415.9c-7.7,0-14,6.3-14,14s6.3,14,14,14h168.3C591.9,1256.7,598.2,1250.4,598.2,1242.7z
			"/>
		<path d="M2315.2,1737.6l-145.7-84.1c-6.7-3.9-15.3-1.6-19.1,5.1s-1.6,15.3,5.1,19.1l145.7,84.1c2.2,1.3,4.6,1.9,7,1.9
			c4.8,0,9.5-2.5,12.1-7C2324.2,1750,2321.9,1741.4,2315.2,1737.6z"/>
		<path d="M704.5,807.6l-145.7-84.1c-6.7-3.9-15.3-1.6-19.1,5.1c-3.9,6.7-1.6,15.3,5.1,19.1l145.7,84.1c2.2,1.3,4.6,1.9,7,1.9
			c4.8,0,9.5-2.5,12.1-7C713.5,820.1,711.2,811.5,704.5,807.6z"/>
		<path d="M995,517.2c2.6,4.5,7.3,7,12.1,7c2.4,0,4.8-0.6,7-1.9c6.7-3.9,9-12.4,5.1-19.1l-84.1-145.7c-3.9-6.7-12.4-9-19.1-5.1
			c-6.7,3.9-9,12.4-5.1,19.1L995,517.2z"/>
	</g>
	<g>
		<path fill="#FFFFFF" d="M1988.9,1213l-88.4-309.5l1.2-3.1h-3.2l-215.3-203.5l-0.6-0.5L1400,624.2l-282.7,72.1L901.5,900.4h-3.3
			l1.3,3.2l-88.2,308.7l-0.2,0.7l60,264l-1.6,2.9l3,0.4l125,201.8l-1.9,2.7l3.3,0.2l116.6,324.3l-3.5,3.7h3.9v184h568.3v-184h3.9
			l-3.5-3.7l116.6-324.3l3.3-0.2l-1.9-2.7l125-201.8l2.9-0.4l-1.5-2.8l59.8-263.3L1988.9,1213z M1400,907.1l1-0.7h273.4L1400,1208.7
			l-274.4-302.2H1399L1400,907.1z M1128.3,1512.3h543.5L1400,1705L1128.3,1512.3z M1400,1217.6L1400,1217.6l274.2,288.7h-548.3
			L1400,1217.6L1400,1217.6z M1120.2,1503.5l-90.5-294.1l363.5,6.6L1120.2,1503.5z M1406.9,1216l368.7-6.6l-95.7,294.1L1406.9,1216z
			 M1685.3,906.4H1893l-113,291L1685.3,906.4z M1775.6,1203.4l-368.7,6.6l273-300.7L1775.6,1203.4z M1393.1,1210l-363.5-6.6
			l90.5-294.1L1393.1,1210z M1025.2,1197.4l-118.1-291h207.7L1025.2,1197.4z M1024.8,1213.9l89.8,291.8L879,1475.1L1024.8,1213.9z
			 M1119.6,1513.5l270,191.5l-383.2-25.4L1119.6,1513.5z M1397,2007.1h-7.1h-264.2l271.3-290.8V2007.1z M1400,2013.7l271.1,177.4
			h-542.2L1400,2013.7z M1403,1716.3l271.3,290.8H1403V1716.3z M1680.4,1513.5l113.2,166.1l-383.2,25.4L1680.4,1513.5z
			 M1685.5,1505.7l94.9-291.8l140.6,261.2L1685.5,1505.7z M1896.9,912.8l84.9,297.2l-197.7-6.5L1896.9,912.8z M1889.8,900.4h-206.5
			h-3.5h-270.6L1680.9,703L1889.8,900.4z M1674.2,700.4L1400,899.7l-274.2-199.3l274.2-70L1674.2,700.4z M1119.1,703l271.7,197.4
			h-270.6h-3.5H910.2L1119.1,703z M1021.2,1203.5l-203,6.5l85-297.4L1021.2,1203.5z M817.9,1216l202.5-6.5l-144.9,259.7L817.9,1216z
			 M880.1,1481.3l233.5,30.3l-112.5,165.1L880.1,1481.3z M1005.4,1685.5l388.1,25.7L1120,2004.5L1005.4,1685.5z M1389.9,2013.1
			l-268.1,175.4v-175.4H1389.9z M1678.2,2188.6l-268.1-175.4h268.1V2188.6z M1680,2004.5l-273.5-293.2l388.1-25.7L1680,2004.5z
			 M1798.9,1676.7l-112.5-165.1l233.5-30.3L1798.9,1676.7z M1784.8,1209.5l197.2,6.5l-57.5,253.1L1784.8,1209.5z"/>
		<g>
			<path fill="#FFFFFF" d="M1118.8,2292.5L1118.8,2292.5c0,24.4,19.8,44.1,44.1,44.1H1637c24.4,0,44.1-19.8,44.1-44.1l0,0
				c0-24.4-19.8-44.1-44.1-44.1H1163C1138.6,2248.4,1118.8,2268.1,1118.8,2292.5z"/>
			<path fill="#FFFFFF" d="M1223.5,2469h353.1c24.4,0,44.1-19.8,44.1-44.1v0c0-24.4-19.8-44.1-44.1-44.1h-353.1
				c-24.4,0-44.1,19.8-44.1,44.1v0C1179.3,2449.3,1199.1,2469,1223.5,2469z"/>
			<path fill="#FFFFFF" d="M1328.1,2601.4h143.8c48.7,0,88.3-39.5,88.3-88.3l0,0h-320.3l0,0
				C1239.8,2561.9,1279.3,2601.4,1328.1,2601.4z"/>
		</g>
		<g>
			<g>
				<path fill="#FFFFFF" d="M1400,380.9c-7.7,0-14-6.3-14-14V198.6c0-7.7,6.3-14,14-14c7.7,0,14,6.3,14,14v168.3
					C1414,374.6,1407.7,380.9,1400,380.9z"/>
			</g>
			<g>
				<path fill="#FFFFFF" d="M1822.9,494.2c-2.4,0-4.8-0.6-7-1.9c-6.7-3.9-9-12.4-5.1-19.1l84.1-145.7c3.9-6.7,12.4-9,19.1-5.1
					c6.7,3.9,9,12.4,5.1,19.1L1835,487.2C1832.4,491.7,1827.7,494.2,1822.9,494.2z"/>
			</g>
			<g>
				<path fill="#FFFFFF" d="M2132.5,803.8c-4.8,0-9.5-2.5-12.1-7c-3.9-6.7-1.6-15.3,5.1-19.1l145.7-84.1c6.7-3.9,15.3-1.6,19.1,5.1
					c3.9,6.7,1.6,15.3-5.1,19.1l-145.7,84.1C2137.3,803.2,2134.9,803.8,2132.5,803.8z"/>
			</g>
			<g>
				<path fill="#FFFFFF" d="M521.8,1733.7c-4.8,0-9.5-2.5-12.1-7c-3.9-6.7-1.6-15.3,5.1-19.1l145.7-84.1c6.7-3.9,15.3-1.6,19.1,5.1
					c3.9,6.7,1.6,15.3-5.1,19.1l-145.7,84.1C526.6,1733.1,524.2,1733.7,521.8,1733.7z"/>
			</g>
			<g>
				<path fill="#FFFFFF" d="M2414.1,1226.7h-168.3c-7.7,0-14-6.3-14-14s6.3-14,14-14h168.3c7.7,0,14,6.3,14,14
					S2421.8,1226.7,2414.1,1226.7z"/>
			</g>
			<g>
				<path fill="#FFFFFF" d="M554.2,1226.7H385.9c-7.7,0-14-6.3-14-14s6.3-14,14-14h168.3c7.7,0,14,6.3,14,14
					S561.9,1226.7,554.2,1226.7z"/>
			</g>
			<g>
				<path fill="#FFFFFF" d="M2278.2,1733.7c-2.4,0-4.8-0.6-7-1.9l-145.7-84.1c-6.7-3.9-9-12.4-5.1-19.1s12.4-9,19.1-5.1l145.7,84.1
					c6.7,3.9,9,12.4,5.1,19.1C2287.7,1731.2,2283,1733.7,2278.2,1733.7z"/>
			</g>
			<g>
				<path fill="#FFFFFF" d="M667.5,803.8c-2.4,0-4.8-0.6-7-1.9l-145.7-84.1c-6.7-3.9-9-12.4-5.1-19.1c3.9-6.7,12.4-9,19.1-5.1
					l145.7,84.1c6.7,3.9,9,12.4,5.1,19.1C677,801.3,672.3,803.8,667.5,803.8z"/>
			</g>
			<g>
				<path fill="#FFFFFF" d="M977.1,494.2c-4.8,0-9.5-2.5-12.1-7l-84.1-145.7c-3.9-6.7-1.6-15.3,5.1-19.1c6.7-3.9,15.3-1.6,19.1,5.1
					l84.1,145.7c3.9,6.7,1.6,15.3-5.1,19.1C981.9,493.6,979.5,494.2,977.1,494.2z"/>
			</g>
		</g>
		<g>
			<circle fill="#E6E6E6" cx="1400" cy="2006.2" r="24.6"/>
			<circle fill="#E6E6E6" cx="1400" cy="903.4" r="24.6"/>
			<circle fill="#E6E6E6" cx="1118.8" cy="2194.1" r="24.6"/>
			<circle fill="#E6E6E6" cx="1001" cy="1682.2" r="24.6"/>
			<circle fill="#E6E6E6" cx="1025.6" cy="1206.4" r="24.6"/>
			<circle fill="#E6E6E6" cx="1779.7" cy="1206.4" r="24.6"/>
			<circle fill="#E6E6E6" cx="874.3" cy="1477.5" r="24.6"/>
			<circle fill="#E6E6E6" cx="902.7" cy="903.4" r="24.6"/>
			<circle fill="#E6E6E6" cx="1118.8" cy="699.1" r="24.6"/>
			<circle fill="#E6E6E6" cx="1799" cy="1682.2" r="24.6"/>
			<circle fill="#E6E6E6" cx="1925.7" cy="1477.5" r="24.6"/>
			<circle fill="#E6E6E6" cx="1897.3" cy="903.4" r="24.6"/>
			<circle fill="#E6E6E6" cx="1681.2" cy="699.1" r="24.6"/>
			<path fill="#E6E6E6" d="M1696.8,2175.1c-0.3-0.3-0.6-0.5-0.9-0.7c-2.8-2.1-6.2-3.6-9.8-4.4c-0.4-0.1-0.8-0.2-1.2-0.2
				c-0.8-0.1-1.6-0.2-2.5-0.3c-0.4,0-0.8,0-1.3,0c-13.6,0-24.6,11-24.6,24.6c0,13.6,11,24.6,24.6,24.6c0.4,0,0.8,0,1.3,0
				c0.8,0,1.7-0.1,2.5-0.3c0.4-0.1,0.8-0.1,1.2-0.2c3.6-0.7,6.9-2.3,9.8-4.4c0.3-0.2,0.6-0.5,0.9-0.7c3-2.5,5.5-5.7,7-9.4
				c1.2-2.9,1.9-6.2,1.9-9.6c0-3.4-0.7-6.6-1.9-9.6C1702.3,2180.9,1699.8,2177.6,1696.8,2175.1z"/>
		</g>
	</g>
	<g>
		<circle fill="#00BF72" cx="1400" cy="627.3" r="142.9"/>
		<g>
			<g>
				<path fill="#FFFFFF" d="M1346.6,682.8c9,8.6,20,15.1,32.3,18.6c-5.9-6.1-11-14.7-14.8-25.2
					C1358.2,678,1352.3,680.2,1346.6,682.8z"/>
				<path fill="#FFFFFF" d="M1438.1,669.5c7,2.1,13.8,4.7,20.4,7.9c10.8-12.6,17.7-28.8,18.5-46.5h-33.2
					C1443.5,645,1441.5,658.1,1438.1,669.5z"/>
				<path fill="#FFFFFF" d="M1421.1,701.4c12.3-3.5,23.3-10,32.3-18.6c-5.7-2.6-11.5-4.8-17.5-6.6
					C1432,686.7,1427,695.3,1421.1,701.4z"/>
				<path fill="#FFFFFF" d="M1453.4,571.8c-9-8.6-20-15.1-32.3-18.6c5.9,6.1,11,14.7,14.8,25.2
					C1441.8,576.6,1447.7,574.5,1453.4,571.8z"/>
				<path fill="#FFFFFF" d="M1443.8,623.8h33.2c-0.8-17.7-7.6-33.9-18.5-46.5c-6.6,3.2-13.4,5.8-20.4,7.9
					C1441.5,596.5,1443.5,609.6,1443.8,623.8z"/>
				<path fill="#FFFFFF" d="M1378.9,553.2c-12.3,3.5-23.3,10-32.3,18.6c5.7,2.6,11.5,4.8,17.5,6.6
					C1368,567.9,1373,559.3,1378.9,553.2z"/>
				<path fill="#FFFFFF" d="M1356.2,630.9H1323c0.8,17.7,7.6,33.9,18.5,46.5c6.6-3.2,13.4-5.8,20.4-7.9
					C1358.5,658.1,1356.5,645,1356.2,630.9z"/>
				<path fill="#FFFFFF" d="M1361.9,585.1c-7-2.1-13.8-4.7-20.4-7.9c-10.8,12.6-17.7,28.8-18.5,46.5h33.2
					C1356.5,609.6,1358.5,596.5,1361.9,585.1z"/>
				<path fill="#FFFFFF" d="M1371.2,580.2c8.2,1.9,16.7,3,25.3,3.2v-32.8C1386.3,552.8,1377.2,564,1371.2,580.2z"/>
				<path fill="#FFFFFF" d="M1403.5,550.7v32.8c8.6-0.2,17.1-1.3,25.3-3.2C1422.8,564,1413.7,552.8,1403.5,550.7z"/>
				<path fill="#FFFFFF" d="M1396.5,704v-32.8c-8.6,0.2-17.1,1.3-25.3,3.2C1377.2,690.6,1386.3,701.8,1396.5,704z"/>
				<path fill="#FFFFFF" d="M1436.7,630.9h-33.2v33.3c9.4,0.2,18.6,1.4,27.6,3.5C1434.4,656.8,1436.4,644.2,1436.7,630.9z"/>
				<path fill="#FFFFFF" d="M1403.5,671.2V704c10.1-2.1,19.2-13.3,25.3-29.6C1420.6,672.5,1412.2,671.4,1403.5,671.2z"/>
				<path fill="#FFFFFF" d="M1363.3,623.8h33.2v-33.3c-9.4-0.2-18.6-1.4-27.6-3.5C1365.6,597.8,1363.6,610.4,1363.3,623.8z"/>
				<path fill="#FFFFFF" d="M1368.9,667.7c9-2.1,18.2-3.3,27.6-3.5v-33.3h-33.2C1363.6,644.2,1365.6,656.8,1368.9,667.7z"/>
				<path fill="#FFFFFF" d="M1431.1,587c-9,2.1-18.2,3.3-27.6,3.5v33.3h33.2C1436.4,610.4,1434.4,597.8,1431.1,587z"/>
			</g>
		</g>
	</g>
	<g>
		<circle fill="#D70000" cx="1400" cy="1213.1" r="211.1"/>
		<g>
			<g>
				<polygon fill="#FFFFFF" points="1362.2,1124.8 1362.2,1165.8 1444.9,1165.8 1444.9,1216.5 1497.4,1216.5 1520.6,1246.5 
					1520.6,1124.8 				"/>
				<polygon fill="#FFFFFF" points="1358.6,1172.9 1355.1,1172.9 1279.4,1172.9 1279.4,1294.6 1302.6,1264.6 1437.8,1264.6 
					1437.8,1223.6 1437.8,1220 1437.8,1216.5 1437.8,1172.9 1362.2,1172.9 				"/>
			</g>
		</g>
	</g>
	<g>
		<circle fill="#5F00BF" cx="1400" cy="1708.7" r="142.9"/>
		<g>
			<rect x="1332.4" y="1709.8" fill="#FFFFFF" width="40.4" height="69.7"/>
			<polygon fill="#FFFFFF" points="1379.8,1702.7 1379.8,1779.6 1420.2,1779.6 1420.2,1673.8 1379.8,1673.8 			"/>
			<polygon fill="#FFFFFF" points="1467.6,1637.9 1427.3,1637.9 1427.3,1666.8 1427.3,1779.6 1467.6,1779.6 			"/>
		</g>
	</g>
	<g>
		<circle fill="#AB0080" cx="1681.2" cy="1509.3" r="98.6"/>
		<path fill="#FFFFFF" d="M1733.8,1516.9v-15.2l-11.5-3.6c-1-3.5-2.4-6.9-4.1-10l5.6-10.7l-10.7-10.7l-10.7,5.6
			c-3.1-1.8-6.4-3.2-10-4.1l-3.6-11.5h-15.2l-3.6,11.5c-3.5,1-6.9,2.4-10,4.1l-10.7-5.6l-10.7,10.7l5.6,10.7
			c-1.8,3.1-3.2,6.4-4.1,10l-11.5,3.6v15.2l11.5,3.6c1,3.5,2.4,6.9,4.1,10l-5.6,10.7l10.7,10.7l10.7-5.6c3.1,1.8,6.4,3.2,10,4.1
			l3.6,11.5h15.2l3.6-11.5c3.5-1,6.9-2.4,10-4.1l10.7,5.6l10.7-10.7l-5.6-10.7c1.8-3.1,3.2-6.4,4.1-10L1733.8,1516.9z
			 M1681.2,1537.5c-15.6,0-28.2-12.6-28.2-28.2c0-15.6,12.6-28.2,28.2-28.2c15.6,0,28.2,12.6,28.2,28.2
			C1709.3,1524.9,1696.7,1537.5,1681.2,1537.5z"/>
	</g>
	<g>
		<circle fill="#FF0080" cx="1985.8" cy="1213.1" r="98.6"/>
		<g>
			<path fill="#FFFFFF" d="M2000.4,1216.8l-10.9,10.9l28.9,28.9c3,3,7.9,3,10.9,0l0,0c3-3,3-7.9,0-10.9L2000.4,1216.8z"/>
			<path fill="#FFFFFF" d="M1947.4,1174.8c-14.1,14.1-14.1,36.9,0,50.9c14.1,14.1,36.9,14.1,50.9,0s14.1-36.9,0-50.9
				C1984.3,1160.7,1961.5,1160.7,1947.4,1174.8z M1993,1220.3c-11.1,11.1-29.1,11.1-40.2,0c-11.1-11.1-11.1-29.1,0-40.2
				c11.1-11.1,29.1-11.1,40.2,0C2004.1,1191.2,2004.1,1209.2,1993,1220.3z"/>
			<g>
				<path fill="#FFFFFF" d="M1987.2,1188.4c-0.7,0.7-1.8,0.7-2.5,0c-6.5-6.5-17.1-6.5-23.6,0c-0.7,0.7-1.8,0.7-2.5,0s-0.7-1.8,0-2.5
					c7.9-7.9,20.7-7.9,28.6,0C1987.9,1186.6,1987.9,1187.7,1987.2,1188.4z"/>
			</g>
		</g>
	</g>
	<g>
		<circle fill="#0099A1" cx="1118.8" cy="1509.3" r="98.6"/>
		<g>
			<path fill="#FFFFFF" d="M1139.2,1529.6c0.2,7-1.8,12.5-5.9,16.4c-2.5,2.3-5.5,3.8-9.2,4.4v5.7h-10.4v-6
				c-4.9-1.3-8.7-4.2-11.4-8.7c-2.3-3.9-3.5-8.5-3.9-13.7l11.8-0.8c0.5,4.8,1.8,8.3,3.7,10.3c1.5,1.6,3.2,2.4,5.1,2.3
				c2.7-0.1,4.9-1.4,6.5-4c0.8-1.3,1.2-3.1,1.2-5.4c0-3.3-1.5-6.7-4.6-10.1c-2.5-2.3-6.2-5.8-11-10.4c-3.8-3.6-6.5-6.9-8.2-9.9
				c-2.1-3.7-3.2-7.8-3.2-12.2c0-4.2,1-8.1,3-11.6c2.4-4.3,6.1-7,10.9-8.2v-5.3h10.4v5.3c3.3,0.7,6,2.1,8.2,4.2
				c3.8,3.6,6,8.2,6.4,14l-11.9,2.2c-0.3-3.3-1.3-5.9-2.9-7.9c-1-1.3-2.7-2-4.8-2c-2.3,0-4,1-5.2,3c-1,1.6-1.4,3.6-1.4,6
				c0,3.7,1.6,7.6,4.8,11.5c1.2,1.4,3,3.1,5.4,5.2c2.9,2.3,4.8,4,5.7,5c3,3.1,5.4,6.1,7,9C1137.9,1522.1,1139.1,1526,1139.2,1529.6z
				"/>
		</g>
	</g>
	<g>
		<circle fill="#C300FF" cx="1118.8" cy="903.4" r="98.6"/>
		<path fill="#FFFFFF" d="M1118.8,852c-19.9,0-36.1,16.1-36.1,36.1c0,35.6,36.1,66.7,36.1,66.7s36.1-31.1,36.1-66.7
			C1154.9,868.2,1138.8,852,1118.8,852z M1118.8,902.9c-8.2,0-14.8-6.6-14.8-14.8c0-8.2,6.6-14.8,14.8-14.8
			c8.2,0,14.8,6.6,14.8,14.8C1133.6,896.2,1127,902.9,1118.8,902.9z"/>
	</g>
	<g>
		<circle fill="#00B7FF" cx="1681.2" cy="2006.2" r="98.6"/>
		<g>
			<path fill="#FFFFFF" d="M1733.4,2041l-0.9-7.1c-0.3-2.5-2-4.5-4.4-5.2l-20.6-6.2c-2.2-0.7-4.6-0.1-6.2,1.6l-4.1,4.1l36.2,14
				C1733.4,2041.7,1733.4,2041.3,1733.4,2041z"/>
			<path fill="#FFFFFF" d="M1685.8,2030.7c-4.2-3.1-10.3-8-15.7-13.4c-5.4-5.4-10.2-11.5-13.4-15.7c-1.9-2.5-1.9-6-0.1-8.5
				l-14.6-37.8c-7.2,4-11.4,9.8-12.7,17.4c-2.7,15.8,7.9,37.9,27.7,57.7c19.8,19.8,41.9,30.4,57.7,27.7c7.6-1.3,13.4-5.6,17.4-12.7
				l-37.7-14.6C1691.8,2032.6,1688.3,2032.6,1685.8,2030.7z"/>
			<path fill="#FFFFFF" d="M1663.4,1986.1c1.6-1.6,2.2-4,1.6-6.2l-6.2-20.6c-0.7-2.4-2.8-4.1-5.2-4.4l-7.1-0.9c-0.2,0-0.4,0-0.6,0
				c-0.2,0-0.4,0-0.5,0l14,36.2L1663.4,1986.1z"/>
		</g>
	</g>
	<g>
		<circle fill="#FF7200" cx="1681.2" cy="903.4" r="98.6"/>
		<path fill="#FFFFFF" d="M1729.1,854.1c-18.8-1-34.5-5.6-47.9-11.6c-13.4,6-29.1,10.6-47.9,11.6c-15.4,53.9,4.5,89.9,47.9,110.2
			C1724.6,944,1744.4,908,1729.1,854.1z M1721.4,903.3h-40.2v48.4c-17.2-9-29.2-20.6-35.7-34.6c-2-4.3-3.5-8.9-4.5-13.8h40.2v-48.4
			c12.6,5.2,25.4,8.4,38.9,9.9C1723.3,879,1723.7,891.8,1721.4,903.3z"/>
	</g>
	<g>
		<circle fill="#FFD95D" cx="1118.8" cy="2006.2" r="98.6"/>
		<g>
			<path fill="#FFFFFF" d="M1141.3,1976.5c-0.4-0.2-0.7-0.3-1.1-0.4c-0.4-11.4-2.8-22.1-21.3-22.1c-18.5,0-20.9,10.7-21.3,22.1
				c-0.4,0.1-0.8,0.2-1.1,0.4c-1.6,0.9-2.6,2.6-2.7,4.9c-0.1,2,0.4,4.3,1.6,6.5c0.9,1.7,2.1,3.2,3.4,4.3c3,11.5,11,19.2,20.1,19.2
				c9.1,0,17.2-7.7,20.1-19.2c1.3-1.1,2.5-2.6,3.4-4.3c1.1-2.1,1.7-4.4,1.6-6.5C1143.9,1979.1,1142.9,1977.3,1141.3,1976.5z"/>
			<path fill="#FFFFFF" d="M1167,2037.6c-1-6.7-5.5-12.4-11.8-14.8l-18.3-7.2l-2.5-3c-0.5-0.6-1.5-0.7-2.1-0.2l-13.5,10l-13.5-10
				c-0.7-0.5-1.6-0.4-2.1,0.2l-2.5,3l-18.3,7.2c-6.3,2.5-10.8,8.2-11.8,14.8l-4,27c-0.1,0.4,0.1,0.9,0.4,1.2
				c0.3,0.3,0.7,0.5,1.2,0.5h44.4h12.5h44.4c0.5,0,0.9-0.2,1.2-0.5c0.3-0.3,0.4-0.8,0.4-1.2L1167,2037.6z M1125.8,2054.9l-1.7-18.6
				l3.2-4.1l3.1,2.2L1125.8,2054.9z M1110.4,2032.2l3.2,4.1l-1.7,18.6l-4.6-20.5L1110.4,2032.2z M1133,2015.7l1.3,1.6l-0.9,4.2
				l-2.2,9.7l-9.7-6.9L1133,2015.7z M1104.7,2015.7l11.5,8.6l-9.7,6.9l-2.5-11.1l-0.6-2.8L1104.7,2015.7z"/>
		</g>
	</g>
	<g>
		<circle fill="#007BFF" cx="814.2" cy="1213.1" r="98.6"/>
		<g>
			<g>
				<polygon fill="#FFFFFF" points="829.7,1213.1 867.7,1242.1 867.7,1184.2 				"/>
				<polygon fill="#FFFFFF" points="760.7,1184.2 760.7,1242.1 798.7,1213.1 				"/>
				<path fill="#FFFFFF" d="M815.7,1223.8c-0.4,0.3-1,0.5-1.5,0.5c-0.5,0-1.1-0.2-1.5-0.5l-9.8-7.5l-37.2,28.4h97.2l-37.2-28.4
					L815.7,1223.8z"/>
				<polygon fill="#FFFFFF" points="804.9,1211.6 806.9,1213.1 814.2,1218.7 821.4,1213.1 823.5,1211.6 825.5,1210 862.8,1181.6 
					765.6,1181.6 802.8,1210 				"/>
			</g>
		</g>
	</g>
</g>
</svg>
